<?xml version="1.0" standalone="no"?><!DOCTYPE svg PUBLIC "-//W3C//DTD SVG 1.1//EN" "http://www.w3.org/Graphics/SVG/1.1/DTD/svg11.dtd"><svg t="1582604635151" class="icon" viewBox="0 0 1024 1024" version="1.1" xmlns="http://www.w3.org/2000/svg" p-id="5056" xmlns:xlink="http://www.w3.org/1999/xlink" width="200" height="200"><defs><style type="text/css"></style></defs><path d="M543.999 480.001h191.99c17.673 0 32 14.327 32 31.999s-14.327 31.999-32 31.999H544v191.99c0 17.673-14.327 32-31.999 32s-31.999-14.327-31.999-32V544h-191.99c-17.673 0-32-14.327-32-31.999s14.327-31.999 32-31.999H480v-191.99c0-17.673 14.327-32 31.999-32s31.999 14.327 31.999 32V480zM128.019 512c0 212.063 171.918 383.981 383.981 383.981S895.981 724.063 895.981 512 724.061 128.019 512 128.019 128.019 299.937 128.019 512z m-63.998 0C64.021 264.593 264.593 64.021 512 64.021S959.978 264.593 959.978 512 759.406 959.978 512 959.978 64.021 759.406 64.021 512z" p-id="5057" fill="#5d5d5d"></path></svg>